<?xml version="1.0" encoding="UTF-8" standalone="no" ?>
<!DOCTYPE svg PUBLIC "-//W3C//DTD SVG 1.1//EN" "http://www.w3.org/Graphics/SVG/1.1/DTD/svg11.dtd">
<svg xmlns="http://www.w3.org/2000/svg" xmlns:xlink="http://www.w3.org/1999/xlink" version="1.1" width="500" height="500" viewBox="0 0 500 500" xml:space="preserve">
<desc>Created with Fabric.js 3.6.3</desc>
<defs>
</defs>
<rect x="0" y="0" width="100%" height="100%" fill="#333333"></rect>
<g transform="matrix(1.8790084390549755 0 0 1.8790084390549755 250.5 222.7007569718013)"  >
<path style="stroke: none; stroke-width: 1; stroke-dasharray: none; stroke-linecap: butt; stroke-dashoffset: 0; stroke-linejoin: miter; stroke-miterlimit: 4; fill: rgb(255,255,255); fill-rule: nonzero; opacity: 1;"  transform=" translate(-49.999, -49.99999999999999)" d="M 93.146 53.175 c 2.949 -1.872 3.821 -6.621 4.664 -8.872 l 0.024 -0.169 l -0.17 0.017 c -4.612 0.469 -7.021 2.95 -8.284 4.802 c 0.308 -1.953 0.468 -3.929 0.468 -5.919 c 0 -0.024 -0.001 -0.047 -0.001 -0.071 l 0.02 0.027 c 0 0 2.312 -0.332 4.461 -2.856 c 2.264 -2.66 1.694 -7.454 1.835 -9.854 l -0.027 -0.169 l -0.157 0.067 c -4.351 1.846 -5.896 5.012 -6.531 7.159 c -0.242 -1.709 -0.596 -3.394 -1.051 -5.045 c 0.445 -0.238 2.202 -1.305 3.388 -3.925 c 1.438 -3.183 -0.437 -7.632 -0.966 -9.977 l -0.072 -0.155 l -0.133 0.107 c -3.421 2.776 -4.181 5.979 -4.282 8.215 c -0.536 -1.193 -1.13 -2.36 -1.782 -3.499 l 0.024 0.011 c 0 0 1.777 -1.425 2.328 -4.61 c 0.581 -3.356 -2.275 -7.098 -3.348 -9.182 l -0.106 -0.128 l -0.099 0.134 c -2.648 3.588 -2.477 6.911 -1.983 9.04 c -0.399 -0.513 -0.813 -1.018 -1.24 -1.514 c -0.071 -1.121 -0.642 -2.509 -1.95 -3.98 c -1.437 -1.618 -4.195 -3.92 -9.004 -3.632 l -0.166 0.01 l 0.051 0.159 c 1.163 2.035 2.745 6.469 5.876 7.809 c 1.76 0.753 3.229 0.81 4.141 0.731 c 0.478 0.559 0.938 1.13 1.381 1.712 c -0.042 -0.017 -0.081 -0.033 -0.122 -0.049 c -2.021 -0.772 -5.531 -1.543 -9.664 0.929 l -0.144 0.085 l 0.117 0.118 c 1.971 1.269 5.419 4.474 8.815 4.22 c 1.728 -0.129 2.98 -0.656 3.776 -1.119 c 0.786 1.371 1.484 2.787 2.095 4.239 c -0.113 -0.087 -0.231 -0.175 -0.353 -0.261 c -1.809 -1.286 -5.096 -2.953 -9.835 -1.561 l -0.164 0.048 l 0.087 0.147 c 1.63 1.767 4.231 5.834 7.668 6.454 c 1.856 0.335 3.302 0.088 4.204 -0.188 c 0.455 1.647 0.804 3.329 1.038 5.036 c -0.009 -0.011 -0.016 -0.021 -0.024 -0.032 c -1.382 -1.736 -4.079 -4.248 -9.02 -4.222 l -0.17 0.001 l 0.042 0.166 c 1.077 2.149 2.451 6.778 5.582 8.325 c 1.611 0.797 3.008 0.981 3.953 0.984 c 0 0.032 0.001 0.064 0.001 0.096 c 0 2.039 -0.171 4.064 -0.508 6.063 c -0.019 -0.049 -0.035 -0.098 -0.055 -0.148 c -0.807 -2.068 -2.642 -5.264 -7.368 -6.698 l -0.163 -0.05 l -0.009 0.17 c 0.395 2.372 0.339 7.2 2.873 9.604 c 1.321 1.253 2.618 1.841 3.521 2.118 c -0.572 1.825 -1.288 3.616 -2.138 5.365 c -0.003 -0.17 -0.009 -0.344 -0.021 -0.523 c -0.136 -2.215 -0.903 -5.818 -4.965 -8.631 l -0.142 -0.097 l -0.06 0.16 c -0.35 2.379 -1.88 6.958 -0.203 10.021 c 0.998 1.822 2.232 2.814 3.016 3.301 c -1.044 1.63 -2.214 3.212 -3.504 4.734 c 0.032 -0.146 0.062 -0.294 0.089 -0.446 c 0.407 -2.275 0.518 -6.111 -2.901 -9.956 l -0.118 -0.133 l -0.101 0.146 c -0.938 2.32 -3.614 6.578 -2.67 10.091 c 0.546 2.031 1.509 3.32 2.18 4.021 c -0.188 0.178 -0.374 0.356 -0.564 0.532 c -1.361 1.253 -2.711 2.37 -4.043 3.374 c 0.043 -0.107 0.087 -0.214 0.127 -0.326 c 0.845 -2.292 1.667 -6.265 -1.181 -10.897 l -0.099 -0.161 l -0.133 0.135 c -1.405 2.242 -4.976 6.18 -4.642 10.01 c 0.173 1.992 0.81 3.421 1.351 4.31 c -1.962 1.158 -3.866 2.094 -5.695 2.87 c 0.175 -0.195 0.351 -0.402 0.524 -0.626 c 1.399 -1.802 3.255 -5.104 2.031 -10.033 l -0.042 -0.17 l -0.155 0.082 c -1.886 1.598 -6.177 4.091 -6.964 7.595 c -0.509 2.264 -0.136 3.958 0.154 4.812 c -2.058 0.672 -3.977 1.184 -5.719 1.649 c -0.014 0.003 -0.028 0.007 -0.042 0.01 c -0.014 -0.003 -0.028 -0.007 -0.042 -0.01 c -1.743 -0.466 -3.662 -0.978 -5.719 -1.649 c 0.29 -0.854 0.662 -2.549 0.154 -4.812 c -0.787 -3.504 -5.079 -5.997 -6.964 -7.595 l -0.156 -0.082 l -0.042 0.17 c -1.224 4.929 0.631 8.231 2.032 10.033 c 0.173 0.224 0.349 0.431 0.524 0.626 c -1.83 -0.776 -3.734 -1.712 -5.696 -2.87 c 0.541 -0.889 1.177 -2.317 1.35 -4.31 c 0.334 -3.83 -3.236 -7.768 -4.642 -10.01 l -0.131 -0.135 l -0.098 0.161 c -2.848 4.633 -2.026 8.605 -1.183 10.897 c 0.042 0.112 0.085 0.219 0.128 0.325 c -1.332 -1.003 -2.681 -2.12 -4.042 -3.373 c -0.191 -0.176 -0.378 -0.354 -0.566 -0.532 c 0.671 -0.7 1.635 -1.989 2.18 -4.021 c 0.944 -3.513 -1.731 -7.771 -2.67 -10.091 l -0.101 -0.146 L 24.2 58.021 c -3.419 3.845 -3.31 7.681 -2.902 9.956 c 0.027 0.152 0.058 0.301 0.089 0.446 c -1.29 -1.522 -2.459 -3.104 -3.503 -4.734 c 0.783 -0.486 2.017 -1.479 3.015 -3.301 c 1.678 -3.063 0.148 -7.643 -0.203 -10.021 l -0.06 -0.16 l -0.14 0.097 c -4.062 2.812 -4.83 6.416 -4.966 8.631 c -0.011 0.18 -0.017 0.354 -0.02 0.523 c -0.85 -1.749 -1.566 -3.54 -2.139 -5.365 c 0.903 -0.277 2.2 -0.865 3.521 -2.118 c 2.535 -2.404 2.479 -7.232 2.873 -9.604 l -0.008 -0.17 l -0.164 0.05 c -4.728 1.435 -6.561 4.63 -7.368 6.698 c -0.02 0.05 -0.036 0.099 -0.055 0.148 c -0.336 -2 -0.508 -4.025 -0.508 -6.064 c 0 -0.032 0.001 -0.064 0.001 -0.096 c 0.944 -0.003 2.341 -0.187 3.953 -0.984 c 3.131 -1.547 4.504 -6.176 5.583 -8.325 l 0.042 -0.166 l -0.171 -0.001 c -4.94 -0.026 -7.636 2.486 -9.019 4.222 c -0.008 0.011 -0.016 0.022 -0.024 0.033 c 0.234 -1.707 0.582 -3.389 1.037 -5.037 c 0.903 0.276 2.348 0.523 4.205 0.188 c 3.438 -0.62 6.039 -4.688 7.669 -6.454 l 0.086 -0.147 l -0.164 -0.048 c -4.74 -1.393 -8.026 0.274 -9.835 1.561 c -0.122 0.086 -0.239 0.174 -0.353 0.261 c 0.61 -1.452 1.309 -2.868 2.095 -4.239 c 0.796 0.462 2.049 0.99 3.776 1.119 c 3.396 0.254 6.845 -2.951 8.815 -4.22 l 0.118 -0.118 l -0.143 -0.085 c -4.134 -2.473 -7.644 -1.702 -9.664 -0.929 c -0.042 0.016 -0.081 0.033 -0.123 0.049 c 0.443 -0.582 0.902 -1.153 1.38 -1.712 c 0.912 0.079 2.382 0.022 4.141 -0.731 c 3.131 -1.34 4.713 -5.774 5.876 -7.809 l 0.051 -0.159 l -0.167 -0.01 c -4.808 -0.288 -7.567 2.014 -9.004 3.632 c -1.308 1.471 -1.877 2.859 -1.949 3.98 c -0.427 0.496 -0.841 1.001 -1.241 1.514 c 0.495 -2.129 0.666 -5.452 -1.982 -9.04 l -0.099 -0.134 l -0.106 0.128 c -1.073 2.084 -3.929 5.826 -3.348 9.182 c 0.552 3.185 2.328 4.61 2.328 4.61 l 0.025 -0.011 c -0.653 1.138 -1.247 2.306 -1.782 3.499 c -0.101 -2.235 -0.861 -5.439 -4.282 -8.215 l -0.132 -0.107 L 9.182 18.39 c -0.53 2.345 -2.404 6.794 -0.965 9.977 c 1.186 2.62 2.942 3.688 3.388 3.925 c -0.456 1.651 -0.809 3.336 -1.051 5.045 c -0.636 -2.146 -2.182 -5.313 -6.533 -7.159 l -0.157 -0.067 L 3.837 30.28 c 0.14 2.4 -0.43 7.194 1.834 9.854 c 2.149 2.525 4.46 2.856 4.46 2.856 l 0.021 -0.027 c 0 0.024 -0.001 0.047 -0.001 0.071 c 0 1.99 0.16 3.965 0.467 5.918 c -1.262 -1.852 -3.672 -4.332 -8.284 -4.801 l -0.17 -0.017 l 0.024 0.169 c 0.843 2.251 1.715 7 4.664 8.872 c 2.686 1.705 4.912 1.438 5.088 1.413 c 0.495 1.571 1.092 3.118 1.785 4.636 c -1.802 -1.326 -4.772 -2.747 -9.082 -1.83 l -0.167 0.035 l 0.075 0.154 c 1.491 1.885 3.774 6.139 7.154 7.019 c 2.412 0.628 4.188 0.188 4.921 -0.068 c 0.935 1.458 1.964 2.878 3.089 4.253 c -2.141 -0.933 -5.566 -1.733 -9.813 0.307 l -0.161 0.078 l 0.114 0.137 c 1.973 1.541 5.33 5.284 8.967 5.344 c 2.779 0.045 4.516 -0.969 5.089 -1.365 c 0.179 0.168 0.355 0.337 0.537 0.505 c 1.251 1.151 2.491 2.191 3.718 3.137 c -2.385 -0.622 -6.229 -0.959 -10.432 2.064 l -0.152 0.109 l 0.144 0.121 c 2.337 1.239 6.522 4.516 10.318 3.907 c 3.604 -0.581 5.237 -2.564 5.237 -2.564 l -0.046 -0.112 c -0.014 -0.035 -0.031 -0.068 -0.046 -0.104 c 1.618 0.964 3.197 1.777 4.729 2.477 c -2.281 0.229 -5.458 1.187 -8.103 4.743 l -0.104 0.142 l 0.162 0.067 c 2.432 0.441 7.083 2.173 10.29 0.556 c 2.121 -1.07 3.194 -2.475 3.652 -3.229 c 1.15 0.374 2.259 0.7 3.317 0.996 c -3.044 0.89 -5.489 1.872 -7.147 3.748 l 1.132 1.001 c 1.79 -2.025 4.92 -2.915 8.881 -3.974 c 3.961 1.059 7.091 1.948 8.881 3.974 l 1.133 -1.001 c -1.658 -1.876 -4.104 -2.858 -7.147 -3.748 c 1.059 -0.296 2.168 -0.622 3.318 -0.996 c 0.456 0.754 1.531 2.158 3.651 3.229 c 3.206 1.617 7.858 -0.114 10.289 -0.556 l 0.162 -0.067 l -0.104 -0.142 c -2.646 -3.557 -5.822 -4.515 -8.104 -4.743 c 1.531 -0.699 3.111 -1.513 4.728 -2.476 c -0.015 0.034 -0.032 0.067 -0.046 0.103 l -0.045 0.112 c 0 0 1.633 1.983 5.236 2.564 c 3.796 0.608 7.981 -2.668 10.318 -3.907 l 0.145 -0.121 l -0.153 -0.109 c -4.201 -3.023 -8.046 -2.687 -10.431 -2.064 c 1.226 -0.945 2.467 -1.985 3.718 -3.137 c 0.181 -0.168 0.357 -0.337 0.536 -0.505 c 0.573 0.396 2.311 1.41 5.089 1.365 c 3.637 -0.06 6.994 -3.803 8.967 -5.344 l 0.114 -0.137 l -0.16 -0.078 c -4.248 -2.041 -7.673 -1.239 -9.814 -0.307 c 1.126 -1.375 2.155 -2.795 3.09 -4.253 c 0.734 0.257 2.509 0.696 4.921 0.068 c 3.381 -0.88 5.663 -5.134 7.155 -7.019 l 0.074 -0.154 l -0.167 -0.035 c -4.31 -0.917 -7.279 0.504 -9.081 1.83 c 0.692 -1.518 1.289 -3.064 1.784 -4.636 C 88.235 54.612 90.462 54.879 93.146 53.175 z M 23.856 61.577 c -0.297 4.328 -0.406 7.138 -0.648 8.873 c -0.033 -0.034 -0.067 -0.069 -0.099 -0.104 C 23.042 68.83 22.953 64.545 23.856 61.577 z M 19.368 53.545 c -1.281 4.041 -2.024 6.661 -2.649 8.216 c -0.019 -0.033 -0.039 -0.066 -0.057 -0.099 C 16.918 60.335 17.812 56.176 19.368 53.545 z M 17.529 44.991 c -2.291 3.223 -3.758 5.411 -4.814 6.737 c -0.016 -0.065 -0.032 -0.131 -0.047 -0.195 C 13.486 50.084 15.44 46.846 17.529 44.991 z M 18.289 35.47 c -3.104 2.374 -5.139 4.019 -6.539 4.979 c 0.005 -0.071 0.008 -0.143 0.013 -0.213 C 13 39.071 15.781 36.608 18.289 35.47 z M 21.631 27.377 c -3.798 1.483 -6.259 2.527 -7.868 3.042 c 0.018 -0.052 0.037 -0.102 0.054 -0.153 C 15.194 29.547 18.762 27.798 21.631 27.377 z M 26.003 20.802 c -3.785 0.453 -6.311 0.825 -7.961 0.936 c 0.038 -0.057 0.075 -0.114 0.113 -0.171 C 19.766 21.204 23.33 20.513 26.003 20.802 z M 28.013 11.004 c -3.152 2.148 -5.222 3.644 -6.636 4.503 l -0.104 -0.098 C 22.463 14.396 25.419 12.014 28.013 11.004 z M 16.67 12.628 c 0.653 3.148 0.034 7.696 -0.1 8.597 c -0.01 0.016 -0.021 0.032 -0.032 0.049 C 16.423 19.666 16.573 16.963 16.67 12.628 z M 10.265 21.659 c 1.334 2.71 1.912 6.86 2.075 8.252 c -0.019 0.053 -0.035 0.106 -0.053 0.16 C 11.78 28.475 11.238 25.801 10.265 21.659 z M 5.782 33.122 c 2.3 2.527 4.178 7.093 4.431 7.723 c -0.001 0.009 -0.001 0.02 -0.002 0.029 C 9.268 39.524 7.984 37.046 5.782 33.122 z M 4.888 46.442 c 2.808 1.656 5.797 5.196 6.438 5.976 c 0.006 0.023 0.012 0.047 0.018 0.07 C 10.043 51.462 8.097 49.49 4.888 46.442 z M 7.776 58.794 c 2.749 0.62 6.058 2.54 7.453 3.401 c 0.04 0.071 0.078 0.142 0.117 0.213 C 13.781 61.769 11.417 60.547 7.776 58.794 z M 13.418 69.741 c 3.105 -0.052 7.207 1.215 8.642 1.695 c 0.042 0.044 0.085 0.087 0.127 0.13 C 20.456 71.329 17.709 70.656 13.418 69.741 z M 21.513 79.018 c 3.97 -0.774 9.885 0.26 9.885 0.26 C 29.598 79.402 26.518 79.19 21.513 79.018 z M 38.562 74.599 c 1.829 4.152 3.06 6.718 3.603 8.334 c -0.017 -0.007 -0.034 -0.013 -0.052 -0.02 C 41.593 82.042 39.19 77.902 38.562 74.599 z M 30.87 68.593 c 0.467 4.354 0.858 7.236 0.953 9.099 c -0.058 -0.039 -0.116 -0.076 -0.174 -0.115 C 31.269 75.811 30.499 71.672 30.87 68.593 z M 33.185 86.523 c 2.435 -1.331 6.076 -2.091 7.84 -2.4 c 0.092 0.036 0.187 0.072 0.279 0.106 C 39.65 84.786 37.044 85.441 33.185 86.523 z M 78.487 79.018 c -5.006 0.173 -8.086 0.385 -9.886 0.26 C 68.602 79.277 74.517 78.243 78.487 79.018 z M 69.13 68.593 c 0.371 3.079 -0.398 7.218 -0.778 8.983 c -0.059 0.039 -0.117 0.076 -0.174 0.115 C 68.272 75.829 68.663 72.946 69.13 68.593 z M 61.438 74.599 c -0.628 3.304 -3.03 7.443 -3.551 8.314 c -0.018 0.007 -0.035 0.013 -0.052 0.02 C 58.378 81.316 59.608 78.751 61.438 74.599 z M 66.814 86.523 c -3.858 -1.082 -6.465 -1.737 -8.118 -2.294 c 0.092 -0.034 0.187 -0.07 0.278 -0.106 C 60.738 84.433 64.38 85.192 66.814 86.523 z M 95.112 46.442 c -3.209 3.048 -5.155 5.02 -6.455 6.046 c 0.005 -0.023 0.011 -0.047 0.018 -0.07 C 89.314 51.64 92.304 48.098 95.112 46.442 z M 94.218 33.122 c -2.202 3.925 -3.485 6.403 -4.429 7.752 c 0 -0.01 -0.001 -0.02 -0.001 -0.029 C 90.04 40.215 91.919 35.649 94.218 33.122 z M 89.736 21.659 c -0.975 4.142 -1.517 6.816 -2.022 8.412 c -0.019 -0.053 -0.035 -0.107 -0.054 -0.16 C 87.823 28.517 88.4 24.369 89.736 21.659 z M 83.33 12.628 c 0.098 4.335 0.247 7.038 0.132 8.646 c -0.011 -0.017 -0.021 -0.033 -0.032 -0.049 C 83.295 20.322 82.678 15.776 83.33 12.628 z M 71.986 11.004 c 2.594 1.01 5.55 3.393 6.74 4.405 l -0.104 0.099 C 77.209 14.647 75.139 13.152 71.986 11.004 z M 73.997 20.802 c 2.674 -0.289 6.236 0.402 7.849 0.765 c 0.038 0.057 0.074 0.115 0.112 0.171 C 80.308 21.627 77.782 21.255 73.997 20.802 z M 78.368 27.377 c 2.87 0.421 6.437 2.169 7.813 2.889 c 0.019 0.051 0.037 0.101 0.055 0.153 C 84.628 29.904 82.167 28.861 78.368 27.377 z M 81.712 35.47 c 2.507 1.138 5.288 3.601 6.524 4.765 c 0.006 0.071 0.009 0.143 0.013 0.214 C 86.851 39.489 84.815 37.843 81.712 35.47 z M 82.472 44.991 c 2.088 1.854 4.042 5.093 4.859 6.541 c -0.016 0.065 -0.031 0.131 -0.046 0.196 C 86.229 50.402 84.762 48.214 82.472 44.991 z M 80.633 53.545 c 1.555 2.631 2.449 6.789 2.706 8.117 c -0.019 0.032 -0.038 0.064 -0.058 0.099 C 82.656 60.205 81.913 57.586 80.633 53.545 z M 76.891 70.348 c -0.032 0.034 -0.066 0.068 -0.1 0.103 c -0.24 -1.735 -0.351 -4.544 -0.647 -8.873 C 77.047 64.545 76.957 68.83 76.891 70.348 z M 86.582 69.741 c -4.292 0.915 -7.037 1.588 -8.769 1.825 c 0.042 -0.043 0.085 -0.087 0.127 -0.13 C 79.377 70.956 83.477 69.689 86.582 69.741 z M 92.224 58.794 c -3.641 1.753 -6.005 2.975 -7.569 3.614 c 0.039 -0.071 0.077 -0.142 0.117 -0.213 C 86.166 61.334 89.475 59.414 92.224 58.794 z" stroke-linecap="round" />
</g>
<g transform="matrix(0.07888713134955604 0 0 0.07888713134955604 250.5 214.07250391488407)"  >
<g style=""   >
		<g transform="matrix(1 0 0 1 0 -2.2737368e-13)"  >
<path style="stroke: none; stroke-width: 1; stroke-dasharray: none; stroke-linecap: butt; stroke-dashoffset: 0; stroke-linejoin: miter; stroke-miterlimit: 4; fill: rgb(255,255,255); fill-rule: nonzero; opacity: 0.5;"  transform=" translate(-466.15, -553.9999999999998)" d="M 466.3 0 h 4.1 L 488 8.8 c 11.7 5.9 19.4 9.7 23.2 11.6 c 3.8 1.8 16.6 7.8 38.4 17.8 c 21.8 10 33.1 15.1 33.9 15.2 c 0.7 0.1 6.5 2.5 17.4 7.2 S 620.1 68.7 626 71 c 5.9 2.2 14.3 5.3 25.4 9.1 c 11.1 3.9 18.1 6.3 21 7.3 s 6.6 2.2 11 3.7 c 4.4 1.4 10 3.1 16.9 5.2 c 6.9 2 15.7 4.5 26.3 7.3 c 10.7 2.8 21 5.4 31 7.6 s 16.5 3.7 19.4 4.3 c 2.9 0.6 12.2 2.3 27.9 5.2 c 15.7 2.8 25.5 4.6 29.5 5.2 s 13.7 2.1 29.2 4.6 c 15.5 2.4 23.3 3.7 23.5 3.7 s 7.7 1.4 22.6 4.3 c 14.8 2.8 22.3 4.3 22.4 4.4 l 0.2 0.2 l -0.9 45.4 c -0.6 30.2 -2.2 69.3 -4.7 117.2 s -4.5 81.4 -6 100.5 s -3.1 35.4 -5 49 s -4.1 26.5 -6.6 38.7 s -5.2 24.5 -8.2 36.8 c -2.9 12.4 -5.5 23.2 -7.8 32.6 c -2.3 9.3 -5 19.4 -8.2 30.1 c -3.1 10.8 -5 17.3 -5.6 19.5 s -1.6 5.1 -2.8 8.5 c -1.3 3.5 -2.7 7.7 -4.4 12.8 c -1.7 5.1 -4.3 12.4 -7.8 21.9 c -3.6 9.5 -6.5 17.2 -8.8 22.8 c -2.3 5.7 -5.1 12.5 -8.5 20.4 c -3.3 7.9 -7.6 17.5 -12.9 28.6 c -5.2 11.2 -8.4 17.7 -9.4 19.5 s -4.9 8.5 -11.4 19.9 c -6.6 11.5 -10.6 18.3 -11.9 20.4 c -1.4 2.1 -4.6 7.5 -9.7 16.1 c -5.1 8.6 -8.5 14.1 -10 16.4 c -1.6 2.3 -4 6 -7.2 11 s -5.9 8.8 -7.8 11.6 c -2 2.7 -4.3 6 -6.9 9.7 c -2.6 3.8 -5.1 7.2 -7.5 10.4 s -4.3 5.8 -5.6 7.9 c -1.4 2.1 -3.3 4.9 -6 8.2 c -2.6 3.3 -5.1 6.7 -7.5 10 s -5 6.8 -7.8 10.4 c -2.8 3.6 -5.2 6.6 -7.2 9.1 s -6.2 7.4 -12.7 14.5 s -14.1 15.2 -22.9 24.4 c -8.8 9.1 -16.5 17 -23.2 23.4 c -6.7 6.5 -11.1 10.6 -13.3 12.3 s -7.3 6.1 -15.4 13.1 c -8 7 -13 11.3 -14.7 12.8 c -1.8 1.5 -6.2 5.3 -13.2 11.3 s -11.6 9.8 -13.8 11.6 c -2.2 1.7 -4.7 3.8 -7.5 6.1 c -2.8 2.3 -6.7 5.5 -11.8 9.6 c -5 4.1 -8.8 7.1 -11.4 9 s -5.1 3.7 -7.5 5.2 s -6.8 4.2 -13.2 7.9 c -6.4 3.8 -10.6 6.3 -12.5 7.6 c -2 1.3 -4.2 2.7 -6.7 4.1 s -5.1 3 -7.8 4.9 c -2.7 1.8 -4.7 3.1 -6 4 c -1.3 0.8 -4 2.2 -8.2 4.3 c -4.2 2 -9.2 4.4 -15.1 7 c -5.9 2.6 -9.9 4.4 -12.2 5.2 l -3.4 1.2 l -3.8 -0.9 c -2.5 -0.6 -5.2 -1.6 -8.2 -3 s -7.8 -3.9 -14.7 -7.3 c -6.9 -3.5 -10.9 -5.6 -11.9 -6.4 s -3.7 -2.6 -8 -5.3 c -4.3 -2.7 -7.5 -4.8 -9.7 -6.1 c -2.2 -1.3 -6.5 -3.9 -12.9 -7.6 c -6.4 -3.8 -10.8 -6.4 -13.2 -7.9 s -4.9 -3.2 -7.5 -5.2 c -2.6 -1.9 -5.6 -4.2 -8.9 -6.9 c -3.3 -2.6 -7.8 -6.2 -13.3 -10.8 c -5.5 -4.6 -10.3 -8.5 -14.4 -11.9 c -4.1 -3.3 -10 -8.4 -17.9 -15.2 c -7.8 -6.8 -12.9 -11.1 -15.1 -12.8 s -7 -5.8 -14.4 -12.2 c -7.4 -6.4 -11.6 -10 -12.4 -10.8 s -4.5 -4.4 -11.1 -10.8 c -6.6 -6.4 -11.2 -11 -13.8 -13.7 c -2.6 -2.7 -8.4 -8.8 -17.2 -18.3 c -8.9 -9.4 -14.2 -15.2 -16 -17.4 c -1.8 -2.1 -4.4 -5.3 -7.8 -9.4 c -3.4 -4.2 -6.2 -7.5 -8.2 -10 s -4 -5.2 -6 -7.9 s -4.1 -5.6 -6.3 -8.5 c -2.2 -2.9 -4.2 -5.6 -6 -7.9 c -1.8 -2.3 -3.3 -4.4 -4.5 -6.2 c -1.3 -1.8 -3 -4.2 -5.2 -7.2 c -2.2 -2.9 -4.1 -5.6 -5.6 -7.9 c -1.6 -2.3 -3.7 -5.4 -6.3 -9.1 c -2.6 -3.8 -4.6 -6.7 -6 -8.8 s -3.6 -5.5 -6.6 -10 c -3 -4.6 -5 -7.7 -6 -9.4 c -0.9 -1.7 -3.6 -6.1 -7.8 -13.1 c -4.3 -7 -7.1 -11.6 -8.5 -13.7 c -1.4 -2.1 -4.8 -8 -10.2 -17.5 c -5.4 -9.5 -9.5 -16.7 -12.2 -21.6 c -2.7 -4.9 -5.1 -9.4 -7.2 -13.7 s -5 -10.7 -8.8 -19.2 s -5.6 -12.9 -5.6 -13.1 c 0 -0.2 -1.9 -4.9 -5.6 -14 c -3.8 -9.1 -6.7 -16.3 -8.8 -21.6 s -5 -13.3 -8.8 -24.1 s -7.5 -22.2 -11.3 -34.4 s -7.9 -27 -12.5 -44.5 s -7.8 -30.4 -9.7 -39 c -1.9 -8.5 -4.5 -20.9 -7.8 -37.1 s -5.3 -26.9 -6 -32 c -0.6 -5.1 -2 -20.6 -4.1 -46.6 s -3.4 -45.6 -4.1 -58.8 c -0.6 -13.2 -1.4 -27.2 -2.2 -42 s -2 -39.1 -3.4 -72.8 C 0.7 202.7 0 178.9 0 164.8 v -21 l 2 -1.1 c 1.4 -0.7 5.1 -1.6 11.1 -2.6 c 6.1 -1 14.4 -2.3 25.1 -4 c 10.7 -1.6 26.9 -4.3 48.6 -7.9 c 21.7 -3.7 37.3 -6.3 46.7 -7.9 c 9.4 -1.6 21.8 -4.2 37.3 -7.6 c 15.5 -3.5 28.9 -6.7 40.1 -9.7 c 11.3 -3 21 -5.9 29.2 -8.5 s 14.5 -4.7 19.1 -6.1 c 4.6 -1.4 9 -2.8 13.2 -4.3 c 4.2 -1.4 12.5 -4.5 25.1 -9.1 c 12.5 -4.7 24.3 -9.4 35.3 -14.2 s 16.8 -7.2 17.6 -7.3 c 0.7 -0.1 6 -2.4 15.8 -6.9 s 18.7 -8.5 26.7 -12.2 c 7.9 -3.7 15.8 -7.3 23.5 -11 s 17.4 -8.4 28.9 -14.3 L 462.2 0 H 466.3 L 466.3 0 L 466.3 0 z" stroke-linecap="round" />
</g>
		<g transform="matrix(1 0 0 1 1.6000000000001364 2.949999999999818)"  >
<path style="stroke: none; stroke-width: 1; stroke-dasharray: none; stroke-linecap: butt; stroke-dashoffset: 0; stroke-linejoin: miter; stroke-miterlimit: 4; fill: rgb(255,255,255); fill-rule: nonzero; opacity: 0.81;"  transform=" translate(-467.7500000000001, -556.9499999999998)" d="M 468 71.8 h 3.6 l 15.4 7.7 c 10.3 5.2 17 8.5 20.3 10.1 s 14.5 6.8 33.7 15.6 c 19.1 8.8 29 13.3 29.7 13.3 c 0.6 0.1 5.7 2.2 15.3 6.3 c 9.5 4.1 16.9 7.1 22 9.1 s 12.5 4.6 22.3 8 c 9.7 3.4 15.8 5.5 18.4 6.4 c 2.6 0.9 5.8 2 9.6 3.2 s 8.8 2.8 14.8 4.5 c 6 1.8 13.7 3.9 23.1 6.4 c 9.3 2.5 18.4 4.7 27.2 6.7 s 14.5 3.2 17 3.7 c 2.6 0.5 10.7 2 24.5 4.5 c 13.7 2.5 22.4 4 25.8 4.5 c 3.5 0.5 12 1.9 25.6 4 s 20.4 3.2 20.6 3.2 s 6.8 1.2 19.8 3.7 c 13 2.5 19.6 3.8 19.6 3.9 l 0.1 0.1 l -0.8 39.8 c -0.5 26.5 -1.9 60.7 -4.1 102.7 s -3.9 71.3 -5.2 88 c -1.3 16.7 -2.7 31 -4.4 43 c -1.6 11.9 -3.6 23.2 -5.8 33.9 c -2.2 10.7 -4.6 21.4 -7.1 32.3 c -2.6 10.9 -4.9 20.4 -6.9 28.5 c -2 8.2 -4.4 17 -7.1 26.4 c -2.7 9.4 -4.4 15.1 -4.9 17.1 s -1.4 4.4 -2.5 7.5 c -1.1 3 -2.4 6.8 -3.8 11.2 c -1.5 4.4 -3.8 10.9 -6.9 19.2 c -3.1 8.4 -5.7 15 -7.7 20 s -4.5 10.9 -7.4 17.9 c -2.9 6.9 -6.7 15.3 -11.3 25.1 s -7.3 15.5 -8.2 17.1 s -4.3 7.4 -10 17.5 c -5.8 10 -9.3 16 -10.4 17.9 c -1.2 1.9 -4 6.6 -8.5 14.1 c -4.5 7.6 -7.4 12.4 -8.8 14.4 c -1.4 2 -3.5 5.2 -6.3 9.6 c -2.8 4.4 -5.1 7.7 -6.9 10.1 c -1.7 2.4 -3.8 5.2 -6 8.5 c -2.3 3.3 -4.5 6.3 -6.6 9.1 s -3.8 5.1 -4.9 6.9 c -1.2 1.9 -2.9 4.3 -5.2 7.2 s -4.5 5.9 -6.6 8.8 c -2.1 2.9 -4.4 6 -6.9 9.1 s -4.6 5.8 -6.3 8 s -5.5 6.4 -11.1 12.7 c -5.7 6.2 -12.4 13.3 -20.1 21.3 c -7.7 8 -14.5 14.9 -20.3 20.5 c -5.9 5.7 -9.8 9.3 -11.7 10.8 s -6.4 5.3 -13.5 11.5 c -7.1 6.1 -11.4 9.9 -12.9 11.2 c -1.6 1.3 -5.4 4.6 -11.5 9.9 c -6.1 5.2 -10.2 8.6 -12.1 10.1 c -1.9 1.5 -4.1 3.3 -6.6 5.3 s -5.9 4.8 -10.3 8.4 c -4.4 3.6 -7.7 6.2 -10 7.9 s -4.5 3.2 -6.6 4.5 s -6 3.6 -11.5 6.9 c -5.6 3.3 -9.3 5.5 -11 6.7 s -3.7 2.4 -5.9 3.6 c -2.2 1.2 -4.5 2.7 -6.9 4.3 s -4.1 2.8 -5.2 3.5 c -1.1 0.7 -3.5 2 -7.1 3.7 c -3.7 1.8 -8.1 3.8 -13.2 6.1 c -5.1 2.3 -8.7 3.8 -10.7 4.5 l -3 1.1 l -3.3 -0.8 c -2.2 -0.5 -4.5 -1.4 -7.1 -2.6 c -226.2 -108.8 -368.2 -364 -387.8 -608 c -1.8 -22.8 -3 -39.9 -3.6 -51.5 c -0.5 -11.6 -1.2 -23.8 -1.9 -36.8 s -1.7 -34.2 -3 -63.8 c -1.3 -29.5 -1.9 -50.4 -1.9 -62.7 v -18.4 l 1.8 -0.9 c 1.2 -0.6 4.4 -1.4 9.8 -2.3 c 5.3 -0.9 12.6 -2 22 -3.5 c 9.3 -1.4 23.5 -3.7 42.6 -6.9 s 32.7 -5.5 40.9 -6.9 c 8.2 -1.4 19.1 -3.6 32.7 -6.7 c 13.6 -3 25.3 -5.9 35.2 -8.5 c 9.9 -2.7 18.4 -5.2 25.6 -7.5 c 7.1 -2.3 12.7 -4.1 16.8 -5.3 c 4 -1.2 7.9 -2.5 11.5 -3.7 c 3.7 -1.2 11 -3.9 22 -8 s 21.3 -8.2 30.9 -12.4 c 9.6 -4.2 14.7 -6.3 15.4 -6.4 c 0.6 -0.1 5.3 -2.1 13.9 -6 c 8.6 -3.9 16.4 -7.5 23.4 -10.7 s 13.8 -6.4 20.6 -9.6 s 15.2 -7.4 25.3 -12.5 l 15.1 -7.7 C 464.4 71.8 468 71.8 468 71.8 z" stroke-linecap="round" />
</g>
</g>
</g>
<g transform="matrix(1 0 0 1 250.1436911021067 341.45046383466286)" style=""  ><path fill="#ffffff" opacity="1" d="M-122.69 14.60L-122.69 14.60L-122.45 14.60L-122.45 15.08L-129.22 15.08L-129.22 14.60L-128.98 14.60Q-128.64 14.60-128.35 14.31Q-128.06 14.02-127.85 13.64Q-127.63 13.25-127.54 12.80Q-127.44 12.34-127.44 11.96L-127.44 11.96L-127.44-13.63Q-127.44-13.96-127.54-14.39Q-127.63-14.83-127.85-15.21Q-128.06-15.59-128.35-15.86Q-128.64-16.12-128.98-16.12L-128.98-16.12L-129.22-16.12L-129.22-16.60L-120.86-16.60Q-116.06-16.60-113.45-14.73Q-110.83-12.86-110.83-9.21L-110.83-9.21Q-110.83-7.39-111.43-6.02Q-112.03-4.65-113.04-3.67Q-114.05-2.68-115.42-2.08Q-116.78-1.48-118.32-1.19L-118.32-1.19L-114.86 4.09Q-113.62 6.01-112.32 7.85Q-111.02 9.70-109.78 11.67L-109.78 11.67Q-109.44 12.15-109.03 12.68Q-108.62 13.21-108.17 13.64Q-107.71 14.07-107.21 14.33Q-106.70 14.60-106.18 14.60L-106.18 14.60L-106.18 15.08L-108.24 15.08Q-110.16 15.08-111.38 14.14Q-112.61 13.21-113.42 11.96L-113.42 11.96Q-115.58 8.79-117.72 5.53Q-119.86 2.26-121.97-0.91L-121.97-0.91Q-122.50-0.95-123.10-1.03Q-123.70-1.10-124.22-1.19L-124.22-1.19L-124.22 11.96Q-124.22 12.34-124.13 12.80Q-124.03 13.25-123.82 13.64Q-123.60 14.02-123.34 14.31Q-123.07 14.60-122.69 14.60ZM-123.50-14.97L-124.22-14.97L-124.22-2.78L-123.98-2.78Q-123.60-2.73-122.76-2.71Q-121.92-2.68-120.67-2.68L-120.67-2.68Q-119.66-2.68-118.54-2.99Q-117.41-3.31-116.42-4.05Q-115.44-4.79-114.79-5.99Q-114.14-7.19-114.14-9.02L-114.14-9.02Q-114.14-10.84-114.84-11.99Q-115.54-13.15-116.76-13.82Q-117.98-14.49-119.71-14.73Q-121.44-14.97-123.50-14.97L-123.50-14.97Z"/><path fill="#ffffff" opacity="1" d="M-102.00 15.08L-102.00 14.60L-101.76 14.60Q-101.38 14.60-101.09 14.33Q-100.80 14.07-100.58 13.69Q-100.37 13.30-100.25 12.87Q-100.13 12.44-100.13 12.05L-100.13 12.05L-100.13-13.63Q-100.13-13.96-100.25-14.39Q-100.37-14.83-100.58-15.21Q-100.80-15.59-101.09-15.86Q-101.38-16.12-101.76-16.12L-101.76-16.12L-102.00-16.12L-102.00-16.60L-83.52-16.60L-83.52-12.14L-84.00-12.14Q-84.10-13.24-84.86-14.08Q-85.63-14.92-87.26-14.92L-87.26-14.92L-96.91-14.92L-96.91-2.78L-88.94-2.78Q-87.84-2.78-87.10-3.45Q-86.35-4.12-86.35-5.03L-86.35-5.03L-85.87-5.03L-85.87 0.97L-86.35 0.97Q-86.35 0.10-87.07-0.52Q-87.79-1.15-88.94-1.15L-88.94-1.15L-96.91-1.15L-96.91 13.40L-86.40 13.40Q-85.49 13.40-84.82 12.97Q-84.14 12.53-83.69 11.93Q-83.23 11.33-83.02 10.64Q-82.80 9.94-82.80 9.46L-82.80 9.46L-82.32 9.46L-82.32 15.08L-102.00 15.08Z"/><path fill="#ffffff" opacity="1" d="M-72.38 14.60L-72.38 14.60L-72.14 14.60L-72.14 15.08L-77.47 15.08L-77.47 14.60L-77.23 14.60Q-76.90 14.60-76.58 14.31Q-76.27 14.02-76.08 13.64Q-75.89 13.25-75.77 12.80Q-75.65 12.34-75.65 11.96L-75.65 11.96L-75.65-13.63Q-75.65-13.96-75.72-14.39Q-75.79-14.83-75.98-15.21Q-76.18-15.59-76.51-15.86Q-76.85-16.12-77.33-16.12L-77.33-16.12L-77.57-16.12L-77.57-16.60L-72.72-16.60L-55.30 10.85L-55.30-13.63Q-55.30-13.96-55.42-14.39Q-55.54-14.83-55.75-15.21Q-55.97-15.59-56.26-15.86Q-56.54-16.12-56.93-16.12L-56.93-16.12L-57.17-16.12L-57.17-16.60L-51.79-16.60L-51.79-16.12L-52.03-16.12Q-52.42-16.12-52.70-15.86Q-52.99-15.59-53.21-15.21Q-53.42-14.83-53.52-14.39Q-53.62-13.96-53.62-13.63L-53.62-13.63L-53.62 15.08L-56.59 15.08L-73.97-12.47L-73.97 11.96Q-73.97 12.34-73.87 12.80Q-73.78 13.25-73.56 13.64Q-73.34 14.02-73.06 14.31Q-72.77 14.60-72.38 14.60Z"/><path fill="#ffffff" opacity="1" d="M-33.84 14.60L-33.84 14.60L-33.60 14.60L-33.60 15.08L-40.42 15.08L-40.42 14.60L-40.18 14.60Q-39.79 14.60-39.50 14.31Q-39.22 14.02-39.00 13.64Q-38.78 13.25-38.69 12.80Q-38.59 12.34-38.59 11.96L-38.59 11.96L-38.59-14.83L-44.16-14.83Q-44.93-14.83-45.50-14.49Q-46.08-14.15-46.46-13.65Q-46.85-13.15-47.04-12.55Q-47.23-11.95-47.23-11.37L-47.23-11.37L-47.71-11.37L-47.71-16.60L-26.16-16.60L-26.16-11.37L-26.64-11.37Q-26.64-11.95-26.83-12.55Q-27.02-13.15-27.41-13.65Q-27.79-14.15-28.37-14.49Q-28.94-14.83-29.71-14.83L-29.71-14.83L-35.38-14.83L-35.38 11.96Q-35.38 12.34-35.28 12.80Q-35.18 13.25-34.97 13.64Q-34.75 14.02-34.49 14.31Q-34.22 14.60-33.84 14.60Z"/><path fill="#ffffff" opacity="1" d="M-8.35 15.08L-8.35 14.60L-8.11 14.60Q-6.96 14.60-6.96 13.54L-6.96 13.54Q-6.96 13.16-7.10 12.73L-7.10 12.73L-11.42 1.06L-19.82 1.06L-24.00 12.53Q-24.14 12.92-24.14 13.25L-24.14 13.25Q-24.14 13.88-23.81 14.24Q-23.47 14.60-23.09 14.60L-23.09 14.60L-22.85 14.60L-22.85 15.08L-28.18 15.08L-28.18 14.60L-27.94 14.60Q-27.31 14.60-26.71 13.85Q-26.11 13.11-25.73 12.10L-25.73 12.10L-14.74-17.18L-3.98 11.81Q-3.65 12.77-3.05 13.69Q-2.45 14.60-1.49 14.60L-1.49 14.60L-1.25 14.60L-1.25 15.08L-8.35 15.08ZM-15.65-10.60L-19.34-0.57L-11.95-0.57L-15.65-10.60Z"/><path fill="#ffffff" opacity="1" d=""/><path fill="#ffffff" opacity="1" d="M35.04 15.08L35.04 14.60L35.28 14.60Q36.43 14.60 36.43 13.54L36.43 13.54Q36.43 13.16 36.29 12.73L36.29 12.73L31.97 1.06L23.57 1.06L19.39 12.53Q19.25 12.92 19.25 13.25L19.25 13.25Q19.25 13.88 19.58 14.24Q19.92 14.60 20.30 14.60L20.30 14.60L20.54 14.60L20.54 15.08L15.22 15.08L15.22 14.60L15.46 14.60Q16.08 14.60 16.68 13.85Q17.28 13.11 17.66 12.10L17.66 12.10L28.66-17.18L39.41 11.81Q39.74 12.77 40.34 13.69Q40.94 14.60 41.90 14.60L41.90 14.60L42.14 14.60L42.14 15.08L35.04 15.08ZM27.74-10.60L24.05-0.57L31.44-0.57L27.74-10.60Z"/><path fill="#ffffff" opacity="1" d="M46.32-16.12L46.32-16.60L53.14-16.60L53.14-16.12L52.90-16.12Q52.51-16.12 52.22-15.86Q51.94-15.59 51.72-15.21Q51.50-14.83 51.41-14.39Q51.31-13.96 51.31-13.63L51.31-13.63L51.31 5.33Q51.31 7.21 51.70 8.79Q52.08 10.37 52.99 11.53Q53.90 12.68 55.39 13.33Q56.88 13.97 59.04 13.97L59.04 13.97Q61.44 13.97 62.88 13.21Q64.32 12.44 65.09 11.21Q65.86 9.99 66.10 8.45Q66.34 6.92 66.34 5.43L66.34 5.43L66.34-13.63Q66.34-13.96 66.24-14.39Q66.14-14.83 65.93-15.21Q65.71-15.59 65.42-15.86Q65.14-16.12 64.80-16.12L64.80-16.12L64.56-16.12L64.56-16.60L69.79-16.60L69.79-16.12L69.55-16.12Q69.17-16.12 68.90-15.86Q68.64-15.59 68.42-15.21Q68.21-14.83 68.11-14.39Q68.02-13.96 68.02-13.63L68.02-13.63L68.02 5.29Q68.02 8.41 67.25 10.40Q66.48 12.39 65.14 13.54Q63.79 14.69 61.99 15.13Q60.19 15.56 58.18 15.56L58.18 15.56Q56.02 15.56 54.17 15.10Q52.32 14.65 50.98 13.49Q49.63 12.34 48.86 10.35Q48.10 8.36 48.10 5.33L48.10 5.33L48.10-13.63Q48.10-13.96 48.00-14.39Q47.90-14.83 47.69-15.21Q47.47-15.59 47.18-15.86Q46.90-16.12 46.56-16.12L46.56-16.12L46.32-16.12Z"/><path fill="#ffffff" opacity="1" d="M87.79 14.60L87.79 14.60L88.03 14.60L88.03 15.08L81.22 15.08L81.22 14.60L81.46 14.60Q81.84 14.60 82.13 14.31Q82.42 14.02 82.63 13.64Q82.85 13.25 82.94 12.80Q83.04 12.34 83.04 11.96L83.04 11.96L83.04-14.83L77.47-14.83Q76.70-14.83 76.13-14.49Q75.55-14.15 75.17-13.65Q74.78-13.15 74.59-12.55Q74.40-11.95 74.40-11.37L74.40-11.37L73.92-11.37L73.92-16.60L95.47-16.60L95.47-11.37L94.99-11.37Q94.99-11.95 94.80-12.55Q94.61-13.15 94.22-13.65Q93.84-14.15 93.26-14.49Q92.69-14.83 91.92-14.83L91.92-14.83L86.26-14.83L86.26 11.96Q86.26 12.34 86.35 12.80Q86.45 13.25 86.66 13.64Q86.88 14.02 87.14 14.31Q87.41 14.60 87.79 14.60Z"/><path fill="#ffffff" opacity="1" d="M113.18-17.08L113.18-17.08Q116.93-17.08 119.90-15.76Q122.88-14.44 124.97-12.21Q127.06-9.98 128.18-7.03Q129.31-4.07 129.31-0.86L129.31-0.86Q129.31 2.74 127.99 5.77Q126.67 8.79 124.37 10.95Q122.06 13.11 119.02 14.33Q115.97 15.56 112.51 15.56L112.51 15.56Q108.82 15.56 105.86 14.21Q102.91 12.87 100.87 10.66Q98.83 8.45 97.73 5.57Q96.62 2.69 96.62-0.43L96.62-0.43Q96.62-3.50 97.73-6.50Q98.83-9.50 100.97-11.85Q103.10-14.20 106.18-15.64Q109.25-17.08 113.18-17.08ZM113.14 13.88L113.14 13.88Q116.35 13.73 118.78 12.41Q121.20 11.09 122.83 9.05Q124.46 7.01 125.26 4.57Q126.05 2.12 126.05-0.28L126.05-0.28Q126.05-2.92 125.09-5.61Q124.13-8.30 122.35-10.48Q120.58-12.67 118.10-14.03Q115.63-15.40 112.56-15.40L112.56-15.40Q109.58-15.40 107.23-14.08Q104.88-12.76 103.22-10.70Q101.57-8.63 100.70-6.09Q99.84-3.55 99.84-1.10L99.84-1.10Q99.84 1.54 100.85 4.21Q101.86 6.87 103.63 9.03Q105.41 11.19 107.83 12.53Q110.26 13.88 113.14 13.88Z"/></g><g transform="matrix(0.25476824035494505 0 0 0.25476824035494505 250 209.07250391488407)"  >
<g style=""   >
		<g transform="matrix(0.13 0 0 0.13 -1.1522877023013223 -6.196322138598845)"  >
<path style="stroke: none; stroke-width: 1; stroke-dasharray: none; stroke-linecap: butt; stroke-dashoffset: 0; stroke-linejoin: miter; stroke-miterlimit: 4; fill: rgb(245,139,57); fill-rule: nonzero; opacity: 1;"  transform=" translate(-758.7538015561639, -702.7847064507605)" d="M 1334.783 957.06907 c -19.47144 -111.55957 -73.54443 -195.85065 -118.56641 -250.60639 c -0.08374 -2.74548 -0.2489 -6.91937 -0.60766 -11.98047 c 0 -0.00018 -7.39954 -104.39288 -78.0774 -190.12139 C 1042.31543 388.86893 869.9798 391.86326 733.32776 394.23771 c -54.91022 0.9541 -96.29376 12.27283 -121.28534 19.28638 c -30.67792 8.60937 -45.72046 15.94152 -58.64667 24.71838 c -29.79089 20.228 -44.78637 45.71728 -54.32684 62.34576 c -40.75672 71.036 -42.39563 156.16486 -41.92352 187.46167 a 208.42605 208.42605 0 0 0 -34.75635 1.01563 s -48.63507 5.5152 -98.11554 36.79889 C 263.47278 764.30509 149.427 893.85679 181.99365 963.53623 c 37.84577 80.97479 247.90222 25.91846 611.156 19.40192 a 3863.84107 3863.84107 0 0 1 548.1004 29.10254 A 498.08384 498.08384 0 0 0 1334.783 957.06907 Z M 770.93054 741.51591 c -9.12048 7.58734 -53.81024 5.90118 -61.10681 -0.84278 s -7.29645 -10.95892 0 -16.8601 c 10.20392 -8.25269 54.72235 -4.215 60.19489 0 C 775.49048 728.02805 780.05109 733.92924 770.93054 741.51591 Z m 59.40582 -136.01429 q -0.72473 34.71853 -1.59149 69.44776 c -74.21142 -2.40155 -134.64056 -0.5155 -176.9602 1.75537 c -69.593 3.73444 -159.7572 12.24145 -160.45862 6.71429 a 0.47555 0.47555 0 0 1 -0.00372 -0.05365 l -0.00031 -0.01025 c -3.42273 -131.20068 50.14356 -192.8269 50.14356 -192.82709 c 52.5047 -60.4049 135.82849 -68.25622 158.80731 -70.42132 c 10.90027 -1.0271 36.45874 -2.52124 64.6723 -2.87433 c 28.12341 -0.35187 51.5921 0.52124 68.26581 1.43719 Q 832.286 512.1063 830.33636 605.50162 Z m 330.90839 88.56549 c -7.93664 6.2143 -20.16736 4.20752 -30.06628 1.08863 c -73.48487 -11.73975 -172.595 -17.92371 -276.5597 -19.822 q 5.6001 -129.359 11.19989 -258.71814 h 0.00269 c 41.49481 0.86279 171.08856 8.86779 245.34784 103.70038 C 1155.83179 577.35215 1186.89063 673.98649 1161.24475 694.06711 Z" stroke-linecap="round" />
</g>
		<g transform="matrix(0.13 0 0 0.13 -1.1394771904355565 -6.168676250340859)"  >
<path style="stroke: none; stroke-width: 1; stroke-dasharray: none; stroke-linecap: butt; stroke-dashoffset: 0; stroke-linejoin: miter; stroke-miterlimit: 4; fill: rgb(255,255,255); fill-rule: nonzero; opacity: 1;"  transform=" translate(-758.8520091571966, -702.9975757718528)" d="M 1344.4668 1015.46622 l -3.58887 -0.44873 a 3872.26139 3872.26139 0 0 0 -547.6748 -29.07959 c -117.7129 2.11133 -221.13965 9.45264 -304.24415 15.35059 c -88.82617 6.30518 -158.98632 11.28564 -210.563 7.8501 c -55.96241 -3.72608 -86.53223 -17.39893 -99.12012 -44.332 c -33.85449 -72.43506 82.97461 -203.27784 143.39453 -241.478 c 49.48926 -31.28906 98.8877 -37.188 99.38086 -37.24414 a 212.04369 212.04369 0 0 1 32.05762 -1.1792 c -0.34424 -42.71973 5.01025 -120.71582 42.35791 -185.81006 c 9.07812 -15.82227 24.27246 -42.30469 55.24365 -63.33447 c 12.68848 -8.61524 27.666 -16.18506 59.52148 -25.125 c 22.93506 -6.436 65.62647 -18.417 122.04346 -19.39746 c 68.374 -1.18848 145.875 -2.53516 218.24024 10.91162 c 83.94238 15.59765 145.54589 48.40674 188.33007 100.30273 c 36.83594 44.6792 56.28223 94.42041 66.11035 128.28076 c 10.19629 35.13428 12.44629 60.958 12.63868 63.5376 l 0.00683 -0.00049 c 0.26074 3.67383 0.45508 7.39453 0.58106 11.07666 c 62.98828 76.85352 102.875 161.36621 118.55566 251.20655 a 503.104 503.104 0 0 1 6.50586 55.30273 Z m -482.32422 -36.146 a 3878.05268 3878.05268 0 0 1 475.877 29.29541 a 497.32442 497.32442 0 0 0 -6.1914 -51.03076 c -15.55469 -89.11475 -55.23145 -172.96338 -117.92872 -249.2168 l -0.65039 -0.79053 l -0.03125 -1.02295 c -0.12011 -3.93506 -0.32226 -7.92529 -0.60058 -11.86035 c -0.01856 -0.25879 -1.97071 -26.34033 -12.47949 -62.47851 c -9.67188 -33.26465 -28.78711 -82.11768 -64.9209 -125.94678 c -94.29688 -114.37549 -264.81836 -111.40967 -401.83692 -109.03174 c -55.644 0.9668 -97.85156 12.812 -120.52685 19.17578 c -31.07471 8.72022 -45.56934 16.02588 -57.77246 24.31152 c -29.82569 20.252 -44.58887 45.98291 -53.40967 61.35694 C 464.08789 567.58585 459.522 646.685 460.145 688.00431 l 0.04883 3.21533 l -3.21094 -0.17431 a 205.88143 205.88143 0 0 0 -34.25586 1.001 c -0.479 0.05469 -48.57519 5.83252 -96.85059 36.35352 C 293.106 749.11906 249.80664 792.83243 220.58057 834.703 c -36.88184 52.83838 -49.62012 98.14111 -35.86914 127.5625 c 24.70019 52.84863 129.76171 45.39258 303.82275 33.03809 c 83.17529 -5.90332 186.68945 -13.25049 304.56152 -15.36475 Q 827.57812 979.32 862.14258 979.32023 Z M 743.28467 749.57658 c -15.16309 0 -30.98487 -2.52979 -35.49707 -6.7002 c -3.07324 -2.84082 -6.58155 -6.68506 -6.43115 -11.23633 c 0.145 -4.40478 3.59326 -7.74316 6.58056 -10.15967 c 11.28369 -9.12744 57.11475 -5.27929 63.9126 -0.04443 c 4.82422 3.7168 7.20508 7.43262 7.27832 11.36035 c 0.07129 3.79151 -2.042 7.501 -6.27832 11.02588 l -1.91895 -2.30615 l 1.91895 2.30615 C 768.03418 747.82853 755.88574 749.57658 743.28467 749.57658 Z m -7.54834 -27.55665 c -11.81983 0 -20.78369 1.50342 -24.02588 4.12549 c -2.88281 2.33155 -4.30811 4.19336 -4.35742 5.69287 c -0.05323 1.60987 1.4209 3.7793 4.50683 6.63184 c 5.96534 5.51367 49.21436 7.34473 57.15186 0.73975 c 2.76758 -2.30176 4.15234 -4.42188 4.11719 -6.30127 c -0.03711 -1.98828 -1.65332 -4.18653 -4.94141 -6.71924 c -1.48926 -1.144 -11.65625 -3.478 -26.61377 -4.0542 C 739.56445 722.058 737.61328 722.01993 735.73633 722.01993 Z m 411.97461 -20.91748 a 58.61822 58.61822 0 0 1 -17.22168 -3.019 c -68.15039 -10.86963 -163.55274 -17.69873 -275.92481 -19.75 l -3.07519 -0.05615 l 11.45605 -264.66162 h 2.87305 c 38.75195 0.80517 77.19727 6.59228 111.24707 16.73633 c 58.38965 17.396 104.30371 47.042 136.46582 88.11425 c 21.71582 27.73291 41.124 65.75928 51.915 101.7212 c 11.48828 38.28662 10.63184 66.07568 -2.35156 76.24169 v 0.00049 C 1159.11719 699.54386 1153.97168 701.10245 1147.71094 701.10245 Z M 857.749 672.392 c 111.43164 2.12647 206.08887 8.96729 273.90332 19.80127 l 0.42774 0.10108 c 12.56738 3.96045 21.75976 3.76269 27.31543 -0.58936 c 10.77246 -8.43506 10.88672 -34.52588 0.30371 -69.793 c -10.58692 -35.2832 -29.61231 -72.57177 -50.89258 -99.74658 c -66.4707 -84.8872 -177.72266 -100.77881 -240.11816 -102.48 Z M 504.92236 688.25187 c -14.09912 0.00049 -16.2041 -1.55322 -16.57226 -4.45557 l -0.02783 -0.43115 c -1.78077 -68.2251 12.07373 -117.4707 24.01025 -146.75586 C 525.334 504.70841 538.6416 489.2045 539.20166 488.56 c 22.66553 -26.07617 53.55713 -45.56884 91.81689 -57.937 c 30.58057 -9.88574 57.48438 -12.42041 68.97315 -13.50293 c 10.20557 -0.96191 35.916 -2.52441 64.9165 -2.88769 c 22.81836 -0.28321 45.85938 0.20019 68.4668 1.44189 l 2.86426 0.15772 l -0.02832 2.86767 c -0.61328 61.95166 -1.58008 124.82227 -2.876 186.86475 c -0.47461 22.80566 -1.01074 46.17529 -1.59082 69.45947 l -0.07519 3.02149 l -3.02051 -0.09766 c -59.62305 -1.92969 -119.07324 -1.33984 -176.70313 1.75293 c -20.71777 1.11182 -43.09961 2.63574 -64.74414 4.10986 C 542.84619 686.831 518.40234 688.25187 504.92236 688.25187 Z M 494.2832 681.707 c 8.47657 1.84082 53.00489 -1.19239 92.51026 -3.88282 c 21.666 -1.47509 44.06933 -3.00048 64.83056 -4.11474 c 56.82715 -3.04981 115.417 -3.6709 174.19727 -1.85449 c 0.55078 -22.27637 1.06055 -44.60352 1.51562 -66.41553 h 0 c 1.27442 -61.063 2.23145 -122.92627 2.84571 -183.92725 c -21.55469 -1.12109 -43.47266 -1.5498 -65.2002 -1.28027 c -28.82031 0.36084 -54.31982 1.90918 -64.42822 2.86182 C 630.81055 429.665 578.04736 453.01505 543.73 492.4965 c -0.13037 0.15039 -13.34228 15.59717 -25.96973 46.69238 C 506.19287 567.67472 492.78271 615.44669 494.2832 681.707 Z" stroke-linecap="round" />
</g>
		<g transform="matrix(0.13 0 0 0.13 9.88358534902685 10.071158263094851)"  >
<path style="stroke: none; stroke-width: 1; stroke-dasharray: none; stroke-linecap: butt; stroke-dashoffset: 0; stroke-linejoin: miter; stroke-miterlimit: 4; fill: rgb(241,103,54); fill-rule: nonzero; opacity: 1;"  transform=" translate(-843.6410740675867, -827.9195393223474)" d="M 849.5719 900.06434 c -0.04352 -22.946 -0.26509 -45.8893 -0.46423 -68.83395 c -0.37588 -43.30832 -0.14837 -86.75709 -2.33568 -130.0199 a 3.03444 3.03444 0 0 0 -6.06538 0 c -2.188 43.26281 -1.95981 86.71158 -2.33568 130.0199 c -0.17673 20.39466 -0.41082 40.79 -0.44973 61.18529 c -0.0389 20.38345 -2.55654 42.29346 1.938 62.25554 c 0.86714 3.85169 6.89229 3.85169 7.7601 0 C 851.59308 937.02306 849.60619 918.07715 849.5719 900.06434 Z" stroke-linecap="round" />
</g>
		<g transform="matrix(0.13 0 0 0.13 -38.17842868724714 -11.2920187313666)"  >
<path style="stroke: none; stroke-width: 1; stroke-dasharray: none; stroke-linecap: butt; stroke-dashoffset: 0; stroke-linejoin: miter; stroke-miterlimit: 4; fill: rgb(241,103,54); fill-rule: nonzero; opacity: 1;"  transform=" translate(-473.94124344968105, -663.5877451092185)" d="M 452.16859 642.63892 c 16.092 -29.54575 32.11436 -28.66649 52.7626 -21.87768 c 10.983 3.6112 -14.64083 92.7906 -27.55819 89.47461 C 458.90586 705.49518 420.99254 699.8807 452.16859 642.63892 Z" stroke-linecap="round" />
</g>
		<g transform="matrix(0.13 0 0 0.13 -38.17983393030861 -11.293301381773146)"  >
<path style="stroke: none; stroke-width: 1; stroke-dasharray: none; stroke-linecap: butt; stroke-dashoffset: 0; stroke-linejoin: miter; stroke-miterlimit: 4; fill: rgb(255,255,255); fill-rule: nonzero; opacity: 1;"  transform=" translate(-473.92656531803664, -663.5732394189282)" d="M 478.04736 712.82169 a 5.17064 5.17064 0 0 1 -1.2959 -0.16455 c -0.98486 -0.25293 -2.02587 -0.50781 -3.10839 -0.77392 c -11.53809 -2.83057 -27.33985 -6.708 -33.45166 -20.55176 c -5.23877 -11.86621 -2.03907 -28.18457 9.78173 -49.88819 h 0 c 17.65381 -32.41406 36.43946 -29.40136 55.73877 -23.05712 c 9.50733 3.126 1.18262 35.44335 -2.83789 49.19238 C 498.80762 681.48527 488.48145 712.82169 478.04736 712.82169 Z m -23.68359 -68.98681 c -10.87549 19.96875 -14.105 35.269 -9.59863 45.477 c 5.11865 11.59375 19.53955 15.13183 30.06933 17.71533 c 1.10059 0.27051 2.15869 0.52978 3.16016 0.78711 c 0.7085 0.18457 3.80566 -1.51172 8.70361 -11.2876 c 5.46436 -10.90478 11.3711 -28.333 15.04883 -44.40039 c 4.87451 -21.29932 3.27 -28.26758 2.32373 -29.02979 c -18.42773 -6.04345 -33.84473 -8.38427 -49.707 20.73829 Z" stroke-linecap="round" />
</g>
		<g transform="matrix(0.13 0 0 0.13 1.6860999999999984 33.3801)"  >
<path style="stroke: none; stroke-width: 1; stroke-dasharray: none; stroke-linecap: butt; stroke-dashoffset: 0; stroke-linejoin: miter; stroke-miterlimit: 4; fill: rgb(241,103,54); fill-rule: nonzero; opacity: 1;"  transform=" translate(-780.58939, -1007.21369)" d="M 780.58939 1007.21369" stroke-linecap="round" />
</g>
		<g transform="matrix(0.13 0 0 0.13 40.552314322856674 30.863703735276815)"  >
<path style="stroke: none; stroke-width: 1; stroke-dasharray: none; stroke-linecap: butt; stroke-dashoffset: 0; stroke-linejoin: miter; stroke-miterlimit: 4; fill: rgb(83,55,65); fill-rule: nonzero; opacity: 1;"  transform=" translate(-1079.5571667775528, -987.8590636513388)" d="M 1001.21064 909.06507 c -71.40109 77.19082 -14.23432 196.11987 80.66268 188.21206 c 71.3602 -5.94668 125.85894 -76.58151 102.65513 -148.28725 C 1161.10836 876.61615 1052.87319 853.21452 1001.21064 909.06507 Z" stroke-linecap="round" />
</g>
		<g transform="matrix(0.13 0 0 0.13 40.54515207121989 30.867555759312044)"  >
<path style="stroke: none; stroke-width: 1; stroke-dasharray: none; stroke-linecap: butt; stroke-dashoffset: 0; stroke-linejoin: miter; stroke-miterlimit: 4; fill: rgb(255,255,255); fill-rule: nonzero; opacity: 1;"  transform=" translate(-1079.50583529609, -987.8857788849166)" d="M 1072.99707 1102.14835 c -41.084 0.001 -77.43164 -23.06836 -96.32227 -61.8042 A 117.83981 117.83981 0 0 1 965.624 973.46427 c 3.18848 -24.74365 14.35157 -48.06934 32.28321 -67.45508 h 0 c 12.89648 -13.94189 30.0205 -23.91894 49.51855 -28.852 a 127.70322 127.70322 0 0 1 108.81543 23.82324 a 99.74921 99.74921 0 0 1 32.56836 46.624 a 114.59026 114.59026 0 0 1 -14.03711 99.26367 a 124.61971 124.61971 0 0 1 -92.52539 54.89355 Q 1077.58887 1102.14982 1072.99707 1102.14835 Z m -68.48242 -190.02783 c -38.79492 41.94043 -35.63965 91.69775 -19.75 124.27881 c 17.34277 35.5625 50.66308 56.74512 88.28711 56.74658 q 4.19238 0 8.44726 -0.353 a 115.54793 115.54793 0 0 0 85.78125 -50.91211 c 18.47559 -27.75293 23.08106 -60.25048 12.9668 -91.50585 c -10.4541 -32.30469 -39.38769 -56.58887 -77.39844 -64.959 c -37.73047 -8.30957 -75.41211 1.92334 -98.334 26.70459 Z" stroke-linecap="round" />
</g>
		<g transform="matrix(0.13 0 0 0.13 -46.90518529102079 32.062304385255814)"  >
<path style="stroke: none; stroke-width: 1; stroke-dasharray: none; stroke-linecap: butt; stroke-dashoffset: 0; stroke-linejoin: miter; stroke-miterlimit: 4; fill: rgb(83,55,65); fill-rule: nonzero; opacity: 1;"  transform=" translate(-406.81100668253396, -997.0764486511773)" d="M 328.46494 918.28245 c -71.40178 77.19083 -14.235 196.11988 80.662 188.21207 c 71.3602 -5.94669 125.8596 -76.58152 102.65513 -148.28726 C 488.362 885.83353 380.1268 862.4319 328.46494 918.28245 Z" stroke-linecap="round" />
</g>
		<g transform="matrix(0.13 0 0 0.13 -46.911023526716434 32.06484509826999)"  >
<path style="stroke: none; stroke-width: 1; stroke-dasharray: none; stroke-linecap: butt; stroke-dashoffset: 0; stroke-linejoin: miter; stroke-miterlimit: 4; fill: rgb(255,255,255); fill-rule: nonzero; opacity: 1;"  transform=" translate(-406.75973528235966, -997.1031508890362)" d="M 400.251 1111.36564 c -41.084 0.001 -77.43213 -23.06885 -96.32276 -61.80469 a 117.83379 117.83379 0 0 1 -11.05029 -66.87939 c 3.18848 -24.74366 14.35156 -48.06934 32.28369 -67.45459 c 12.89649 -13.9419 30.01953 -23.91895 49.51807 -28.85205 a 127.70028 127.70028 0 0 1 108.81494 23.82275 a 99.75157 99.75157 0 0 1 32.56885 46.62451 a 114.58784 114.58784 0 0 1 -14.03711 99.26318 a 124.61977 124.61977 0 0 1 -92.52588 54.89356 Q 404.843 1111.36711 400.251 1111.36564 Z m 4.03222 -219.57129 c -28.44726 0 -54.8584 10.45605 -72.51513 29.54394 c -38.79444 41.93995 -35.63916 91.69727 -19.75049 124.27784 c 17.34277 35.5625 50.66406 56.7456 88.28808 56.74707 q 4.1924 0 8.44776 -0.353 a 115.54886 115.54886 0 0 0 85.78125 -50.91211 c 18.47558 -27.75293 23.08056 -60.25 12.96631 -91.50537 c -10.4541 -32.30518 -39.38819 -56.58936 -77.39893 -64.95947 A 120.14129 120.14129 0 0 0 404.2832 891.79435 Z" stroke-linecap="round" />
</g>
		<g transform="matrix(0.13 0 0 0.13 -73.96016389136086 28.02721777484391)"  >
<path style="stroke: none; stroke-width: 1; stroke-dasharray: none; stroke-linecap: butt; stroke-dashoffset: 0; stroke-linejoin: miter; stroke-miterlimit: 4; fill: rgb(169,210,208); fill-rule: nonzero; opacity: 1;"  transform=" translate(-198.6970207329531, -966.0461378979157)" d="M 237.68493 935.75773 c -19.7959 -27.49071 -73.40243 -21.13914 -86.54936 -1.92222 c -13.14627 19.21759 -9.8597 69.18344 24.1026 77.83179 c 33.9623 8.64768 72.3065 -0.96078 76.689 -21.13981 C 256.309 970.34912 250.8312 954.01388 237.68493 935.75773 Z" stroke-linecap="round" />
</g>
		<g transform="matrix(0.13 0 0 0.13 -73.9590883290462 28.028299543162696)"  >
<path style="stroke: none; stroke-width: 1; stroke-dasharray: none; stroke-linecap: butt; stroke-dashoffset: 0; stroke-linejoin: miter; stroke-miterlimit: 4; fill: rgb(255,255,255); fill-rule: nonzero; opacity: 1;"  transform=" translate(-198.70479147098888, -966.0452887037923)" d="M 200.9668 1018.84757 a 109.09685 109.09685 0 0 1 -26.71534 -3.30371 c -13.63574 -3.47217 -24.24853 -13.61182 -29.88427 -28.55078 c -6.97949 -18.50049 -5.48877 -42.32422 3.46728 -55.416 c 7.33594 -10.72314 25.64795 -18.08935 45.56641 -18.3291 c 20.811 -0.22412 38.11816 7.102 47.53027 20.17237 h 0 c 14.8042 20.55957 19.26172 37.89209 14.90479 57.95556 c -1.48828 6.853 -6.27637 12.94922 -13.84668 17.63037 C 231.56885 1015.44962 216.67969 1018.84757 200.9668 1018.84757 Z m -6.53467 -97.606 c -0.31152 0 -0.62109 0.002 -0.93457 0.00586 c -17.15918 0.20655 -33.22168 6.31153 -39.06055 14.84668 c -6.56494 9.59668 -9.32715 30.20362 -2.585 48.0752 c 3.31592 8.78906 10.23584 20.02148 24.37354 23.62158 c 21.90087 5.57568 47.21435 3.27881 61.55615 -5.58887 c 3.96094 -2.44922 8.95215 -6.61035 10.23681 -12.52392 c 3.87793 -17.8584 -0.05615 -32.80274 -13.57959 -51.583 h 0 C 226.70752 927.35831 212.15967 921.24161 194.43213 921.24161 Z" stroke-linecap="round" />
</g>
		<g transform="matrix(0.13 0 0 0.13 73.97011284178171 29.333903684149277)"  >
<path style="stroke: none; stroke-width: 1; stroke-dasharray: none; stroke-linecap: butt; stroke-dashoffset: 0; stroke-linejoin: miter; stroke-miterlimit: 4; fill: rgb(169,210,208); fill-rule: nonzero; opacity: 1;"  transform=" translate(-1336.6203880398061, -976.0971415416075)" d="M 1289.03781 948.07577 c 17.39632 -17.27493 70.39942 -22.08938 86.04359 -6.79668 s 26.39937 56.92277 5.86623 71.36613 s -80.17669 5.09735 -89.95463 -4.248 C 1281.21573 999.05186 1275.34889 961.66979 1289.03781 948.07577 Z" stroke-linecap="round" />
</g>
		<g transform="matrix(0.13 0 0 0.13 73.96974184571266 29.330709368822063)"  >
<path style="stroke: none; stroke-width: 1; stroke-dasharray: none; stroke-linecap: butt; stroke-dashoffset: 0; stroke-linejoin: miter; stroke-miterlimit: 4; fill: rgb(255,255,255); fill-rule: nonzero; opacity: 1;"  transform=" translate(-1336.617096516443, -976.0637587013688)" d="M 1345.9707 1024.0546 c -24.31738 0 -50.77441 -6.10693 -57.74121 -12.76562 c -6.373 -6.09131 -11.10254 -21.47217 -11.24707 -36.57227 c -0.123 -12.97217 3.15723 -23.4414 9.23731 -29.47949 h 0 c 8.751 -8.69043 26.44043 -15.11182 46.16406 -16.75879 c 20.37988 -1.70117 37.38574 2.01416 45.49316 9.94043 c 11.65528 11.39258 19.65332 34.333 18.21 52.22656 c -0.9082 11.26416 -5.34765 20.00293 -12.83789 25.27149 C 1374.93359 1021.76652 1360.85156 1024.0546 1345.9707 1024.0546 Z M 1291.85645 950.914 c -4.46973 4.439 -6.97559 13.08691 -6.874 23.72656 c 0.13574 14.19971 4.56738 26.84424 8.77442 30.86523 c 7.792 7.44776 65.56347 17.46436 84.88867 3.86817 c 6.92676 -4.87207 8.97168 -13.22363 9.46777 -19.37158 c 1.25293 -15.53272 -5.84765 -36.10645 -15.82812 -45.8628 c -13.86719 -13.55517 -64.22754 -9.313 -80.42871 6.77442 Z" stroke-linecap="round" />
</g>
		<g transform="matrix(0.13 0 0 0.13 -68.53143572103347 9.169459365332514)"  >
<path style="stroke: none; stroke-width: 1; stroke-dasharray: none; stroke-linecap: butt; stroke-dashoffset: 0; stroke-linejoin: miter; stroke-miterlimit: 4; fill: rgb(182,228,249); fill-rule: nonzero; opacity: 1;"  transform=" translate(-240.4529077645588, -820.9812927348387)" d="M 253.87206 772.22531 c -31.55933 3.94467 -51.24711 67.26122 -48.04429 85.19754 s 52.52771 20.49885 64.0584 -19.21758 C 281.41688 798.48949 274.37091 769.66279 253.87206 772.22531 Z" stroke-linecap="round" />
</g>
		<g transform="matrix(0.13 0 0 0.13 -68.53046742223252 9.16951291487415)"  >
<path style="stroke: none; stroke-width: 1; stroke-dasharray: none; stroke-linecap: butt; stroke-dashoffset: 0; stroke-linejoin: miter; stroke-miterlimit: 4; fill: rgb(255,255,255); fill-rule: nonzero; opacity: 1;"  transform=" translate(-240.45739168973202, -820.9816852701988)" d="M 228.50439 873.3964 q -1.19384 0 -2.3706 -0.0625 c -12.89111 -0.68262 -22.21436 -6.68652 -23.75147 -15.2959 c -2.5332 -14.18506 6.95752 -48.35547 22.543 -69.51318 c 8.72559 -11.84571 18.31885 -18.498 28.5127 -19.77246 h 0 c 7.07324 -0.88379 13.15967 1.40381 17.60693 6.6167 c 9.68408 11.35156 10.50781 35.207 2.20264 63.8125 C 266.32031 863.04142 246.20361 873.39591 228.50439 873.3964 Z m 27.87549 -97.832 a 16.70218 16.70218 0 0 0 -2.07373 0.13428 h 0 c -8.21386 1.02636 -16.20263 6.73877 -23.74511 16.97753 c -15.03565 20.41211 -23.27979 52.97657 -21.28809 64.13135 c 0.91553 5.126 8.00146 9.04737 17.23144 9.53614 c 15.4795 0.81542 33.85108 -7.86524 40.02051 -29.11426 c 7.418 -25.54981 7.10205 -48.04834 -0.80566 -57.31739 A 11.6887 11.6887 0 0 0 256.37988 775.56437 Z" stroke-linecap="round" />
</g>
		<g transform="matrix(0.13 0 0 0.13 40.55194284427603 30.863284139418457)"  >
<path style="stroke: none; stroke-width: 1; stroke-dasharray: none; stroke-linecap: butt; stroke-dashoffset: 0; stroke-linejoin: miter; stroke-miterlimit: 4; fill: rgb(203,232,249); fill-rule: nonzero; opacity: 1;"  transform=" translate(-1079.5574061594589, -987.8592244528872)" d="M 1041.79487 949.88076 c -34.41533 37.206 -6.8613 94.52905 38.8783 90.71758 c 34.3962 -2.86651 60.66435 -36.9119 49.47992 -71.47428 C 1118.86436 934.24055 1066.69537 922.96111 1041.79487 949.88076 Z" stroke-linecap="round" />
</g>
		<g transform="matrix(0.13 0 0 0.13 -46.90427695056734 32.06188475183376)"  >
<path style="stroke: none; stroke-width: 1; stroke-dasharray: none; stroke-linecap: butt; stroke-dashoffset: 0; stroke-linejoin: miter; stroke-miterlimit: 4; fill: rgb(203,232,249); fill-rule: nonzero; opacity: 1;"  transform=" translate(-406.81086832204943, -997.0766097122196)" d="M 369.04848 959.09814 c -34.41532 37.206 -6.8613 94.52906 38.8783 90.71759 c 34.39555 -2.86652 60.66369 -36.91191 49.47986 -71.47428 C 446.118 943.45793 393.949 932.17849 369.04848 959.09814 Z" stroke-linecap="round" />
</g>
</g>
</g>
</svg>